<?xml version="1.0" encoding="UTF-8" standalone="no"?>
<svg
   xmlns:dc="http://purl.org/dc/elements/1.1/"
   xmlns:cc="http://creativecommons.org/ns#"
   xmlns:rdf="http://www.w3.org/1999/02/22-rdf-syntax-ns#"
   xmlns:svg="http://www.w3.org/2000/svg"
   xmlns="http://www.w3.org/2000/svg"
   xmlns:sodipodi="http://sodipodi.sourceforge.net/DTD/sodipodi-0.dtd"
   xmlns:inkscape="http://www.inkscape.org/namespaces/inkscape"
   width="648.988pt"
   height="485.035pt"
   viewBox="0 0 648.988 485.035"
   version="1.1"
   id="svg2"
   inkscape:version="0.91 r13725"
   sodipodi:docname="named.svg"
   inkscape:export-filename="/home/ruan/git/js/coffee-toolbox/logo/named.svg.png"
   inkscape:export-xdpi="120"
   inkscape:export-ydpi="120">
  <metadata
     id="metadata23">
    <rdf:RDF>
      <cc:Work
         rdf:about="">
        <dc:format>image/svg+xml</dc:format>
        <dc:type
           rdf:resource="http://purl.org/dc/dcmitype/StillImage" />
        <dc:title />
      </cc:Work>
    </rdf:RDF>
  </metadata>
  <defs
     id="defs21" />
  <sodipodi:namedview
     pagecolor="#ffffff"
     bordercolor="#666666"
     borderopacity="1"
     objecttolerance="10"
     gridtolerance="10"
     guidetolerance="10"
     inkscape:pageopacity="0"
     inkscape:pageshadow="2"
     inkscape:window-width="1366"
     inkscape:window-height="703"
     id="namedview19"
     showgrid="false"
     inkscape:zoom="0.7785005"
     inkscape:cx="271.61741"
     inkscape:cy="311.06548"
     inkscape:window-x="0"
     inkscape:window-y="0"
     inkscape:window-maximized="1"
     inkscape:current-layer="surface592" />
  <g
     id="surface592">
    <path
       style=" stroke:none;fill-rule:nonzero;fill:rgb(38.398743%,30.599976%,26.298523%);fill-opacity:1;"
       d="M 0 485.035156 L 648.988281 485.035156 L 648.988281 0 L 0 0 Z M 0 485.035156 "
       id="path5" />
    <path
       style=" stroke:none;fill-rule:nonzero;fill:rgb(97.599792%,90.19928%,78.399658%);fill-opacity:1;"
       d="M 616.539062 24.25 L 32.449219 24.25 L 32.449219 460.78125 L 616.539062 460.78125 Z M 616.539062 24.25 "
       id="path7" />
    <path
       style=" stroke:none;fill-rule:nonzero;fill:rgb(25.898743%,12.89978%,4.299927%);fill-opacity:1;"
       d="M 392.265625 239.46875 C 393.117188 238.476562 372.671875 226.226562 338.027344 220.613281 C 320.800781 217.515625 300.335938 216.574219 278.402344 217.464844 C 256.625 218.902344 232.769531 221.992188 210.691406 231.320312 C 207.785156 232.542969 204.980469 233.984375 202.308594 235.953125 C 199.730469 237.949219 196.886719 240.417969 195.695312 244.707031 C 194.351562 248.742188 196.609375 253.980469 199.609375 256.171875 C 202.410156 258.613281 205.875 259.898438 208.519531 260.800781 C 219.644531 264.855469 231.125 267.519531 242.070312 269.523438 C 264.105469 273.875 285.199219 275.6875 303.476562 276.449219 C 321.742188 277.246094 337.550781 276.425781 348.828125 275.355469 C 360.738281 274.457031 367.414062 272.371094 368.980469 272.175781 C 380.644531 269.523438 388.871094 263.425781 387.605469 260.082031 C 386.320312 256.617188 376.886719 256.890625 366.019531 259.359375 C 364.726562 259.503906 357.886719 261.753906 347.476562 262.835938 C 336.535156 264.214844 321.644531 265.5 303.726562 265.332031 C 285.859375 265.214844 265.246094 264.148438 243.632812 260.675781 C 232.714844 259.050781 221.804688 256.902344 211.039062 253.417969 C 205.582031 251.910156 201.75 249.335938 202.707031 246.378906 C 203.363281 243.160156 208.582031 239.46875 213.304688 237.355469 C 234.167969 227.652344 257.199219 223.820312 278.699219 221.617188 C 300.273438 219.984375 320.621094 220.191406 337.699219 222.648438 C 354.882812 224.964844 368.8125 228.785156 378.296875 232.273438 C 388.109375 235.027344 392.160156 239.75 392.265625 239.46875 "
       id="path9" />
    <path
       style=" stroke:none;fill-rule:nonzero;fill:rgb(25.898743%,12.89978%,4.299927%);fill-opacity:1;"
       d="M 320.242188 388.667969 C 320.25 388.539062 309.183594 388.308594 292.578125 386.097656 C 276.144531 384.023438 253.246094 378.15625 235.132812 363.085938 C 216.746094 348.496094 205.292969 326.542969 199.644531 309.828125 C 196.640625 301.398438 194.664062 294.078125 193.359375 288.738281 C 191.894531 282.90625 191.726562 279.472656 191.566406 278.867188 C 191.101562 273.644531 192.824219 269.71875 196.210938 268.289062 C 199.59375 266.835938 204.15625 271.523438 204.652344 277.375 C 204.804688 278.109375 204.804688 281.480469 205.6875 286.140625 C 206.59375 291.285156 207.964844 298.324219 210.234375 306.441406 C 212.539062 314.601562 215.558594 323.777344 220.367188 332.773438 C 225.144531 341.789062 231.558594 350.722656 239.453125 358.121094 C 255.234375 373.394531 276.761719 380.808594 292.9375 384.074219 C 309.203125 387.472656 320.269531 388.554688 320.242188 388.667969 "
       id="path11" />
    <path
       style=" stroke:none;fill-rule:nonzero;fill:rgb(25.898743%,12.89978%,4.299927%);fill-opacity:1;"
       d="M 404.621094 311.550781 C 404.554688 311.472656 412.664062 304.773438 424.148438 293.972656 C 435.285156 283.292969 450.355469 266.914062 453.4375 246.621094 C 455.097656 236.800781 453.457031 226.316406 447.582031 220.449219 C 444.859375 217.605469 440.808594 215.480469 437.308594 214.59375 C 433.691406 213.628906 429.882812 213.757812 426.445312 214.3125 C 419.503906 215.570312 414.179688 218.777344 411.097656 221.425781 C 408.585938 223.703125 406.851562 226.574219 406.578125 226.933594 C 403.910156 230.691406 399.238281 232.996094 396.105469 231.089844 C 393.035156 229.222656 392.507812 224.050781 395.894531 219.238281 C 396.472656 218.621094 397.996094 215.789062 403.308594 211.519531 C 408.183594 207.941406 415.578125 204.273438 425.023438 203.296875 C 434.347656 202.203125 446.59375 205.070312 454.34375 214.515625 C 462.21875 224.101562 462.515625 237.203125 459.890625 247.921875 C 454.503906 270.363281 437.441406 285.621094 425.515625 295.519531 C 413.136719 305.453125 404.570312 311.460938 404.621094 311.550781 "
       id="path13" />
    <path
       style=" stroke:none;fill-rule:nonzero;fill:rgb(25.898743%,12.89978%,4.299927%);fill-opacity:1;"
       d="M 204.324219 331.832031 C 204.453125 331.960938 200.261719 334.007812 194.902344 339.964844 C 192.347656 343 189.679688 347.261719 188.378906 352.78125 C 187.042969 358.25 187.375 364.96875 190.03125 371.476562 C 195.269531 384.652344 208.445312 395.925781 223.65625 403.878906 C 238.875 412.308594 256.867188 417.992188 275.28125 420.941406 C 293.722656 423.929688 312.546875 424.3125 330.222656 422.925781 C 348.042969 421.367188 364.296875 417.390625 378.128906 413.246094 C 406.109375 404.148438 423.171875 392.390625 425.148438 391.140625 C 432.925781 385.824219 436.90625 378.800781 434.664062 375.980469 C 432.375 373.109375 424.949219 375.339844 417.75 380.238281 C 416.054688 381.347656 400.421875 393.03125 374.699219 402.683594 C 361.558594 407.25 346.054688 411.753906 329.28125 413.96875 C 312.386719 416.054688 294.113281 416.5 276.1875 414.417969 C 258.269531 412.371094 240.664062 407.675781 225.582031 400.1875 C 210.320312 393.058594 197.515625 382.929688 191.925781 370.667969 C 186.023438 358.339844 190.476562 346.179688 195.347656 340.324219 C 200.339844 334.226562 204.464844 331.945312 204.324219 331.832031 "
       id="path15" />
    <path
       style=" stroke:none;fill-rule:nonzero;fill:rgb(38.398743%,30.599976%,26.298523%);fill-opacity:1;"
       d="M 286.285156 191.007812 C 286.148438 190.867188 295.351562 184.289062 308.628906 173.867188 C 311.722656 171.046875 315.746094 168.4375 318.867188 165.050781 C 322.082031 161.835938 324.785156 157.28125 324.765625 152.855469 C 324.734375 148.425781 321.304688 144.386719 317.21875 141.15625 C 313.074219 137.890625 308.199219 135.199219 303.199219 132.652344 C 293.175781 127.390625 282.539062 123.140625 272.953125 116.527344 C 268.257812 113.207031 263.585938 109.117188 260.875 103.160156 C 258.078125 97.046875 258.953125 90.097656 261.269531 85.117188 C 266.300781 74.902344 273.96875 70.617188 278.78125 67.398438 C 283.851562 64.335938 287.160156 62.90625 287.828125 62.574219 C 293.324219 60.179688 298.785156 61.441406 299.960938 64.863281 C 301.152344 68.324219 297.957031 72.507812 293.117188 74.617188 C 292.539062 74.914062 289.460938 76.046875 285.015625 78.335938 C 280.75 80.625 274.457031 84.242188 271.269531 89.957031 C 269.769531 92.824219 269.046875 96.09375 270.230469 99.324219 C 271.398438 102.667969 274.484375 106.21875 278.371094 109.347656 C 286.183594 115.679688 296.609375 120.863281 306.398438 126.898438 C 311.351562 129.910156 316.304688 133.089844 320.707031 137.089844 C 324.945312 140.976562 329.277344 146.394531 328.929688 152.945312 C 328.394531 159.3125 324.726562 163.855469 321 167.238281 C 317.207031 170.738281 313.242188 172.851562 309.878906 175.5 C 295.742188 185.023438 286.195312 190.839844 286.285156 191.007812 "
       id="path17" />
    <g
       style="font-style:normal;font-variant:normal;font-weight:normal;font-stretch:normal;font-size:32px;line-height:125%;font-family:Hack;-inkscape-font-specification:Hack;letter-spacing:0px;word-spacing:0px;fill:#3f1e0a;fill-opacity:1;stroke:none;stroke-width:1px;stroke-linecap:butt;stroke-linejoin:miter;stroke-opacity:1"
       id="text3355">
      <path
         d="M 220.83984 287.76367 C 223.02752 288.20992 225.22622 288.63895 227.4043 289.10938 C 228.51888 299.39258 229.63346 309.67578 230.74805 319.95898 C 231.82544 320.46569 231.58794 319.52331 231.51538 318.74548 C 231.06085 309.10171 230.54527 299.43268 230.12891 289.80469 C 232.23263 290.37569 234.32026 291.00349 236.41406 291.60938 C 236.37174 290.51693 236.32943 289.42448 236.28711 288.33203 C 231.03971 287.0612 225.79232 285.79036 220.54492 284.51953 C 220.64323 285.60091 220.74154 286.68229 220.83984 287.76367 z "
         id="path4175"
         inkscape:connector-curvature="0" />
      <path
         d="M 245.04883 303.875 C 242.26004 304.59244 240.68667 307.65113 240.85487 310.38594 C 241.03311 312.47064 241.35057 314.54504 241.69598 316.60927 C 242.03393 318.42567 242.51115 320.22455 243.23047 321.92969 C 242.71927 320.44709 242.66358 318.84235 242.53281 317.2882 C 242.45823 314.99746 242.43896 312.68216 242.73495 310.40737 C 242.98925 308.90281 243.57382 307.15434 245.07031 306.48047 C 245.9692 306.19098 246.68669 307.05289 247.33594 307.54102 C 250.8079 310.98775 251.70009 316.36156 250.64844 321.00586 C 250.33931 322.50012 249.7412 324.36479 248.05664 324.75781 C 246.10789 325.14678 244.12962 323.91749 243.32617 322.15625 C 243.95216 323.3437 244.3779 324.89332 245.73047 325.44531 C 247.90629 326.38461 250.93903 324.99924 251.1864 322.52037 C 252.76087 316.72599 252.00347 310.05171 248.15242 305.31072 C 247.36333 304.45967 246.23398 303.74107 245.04883 303.875 z "
         id="path4177"
         inkscape:connector-curvature="0" />
      <path
         d="M 264.58203 311.26562 C 260.16654 312.35423 257.49216 317.42998 258.5737 321.74825 C 258.97361 324.75619 260.13662 328.064 262.9457 329.60921 C 266.11219 331.09382 270.11797 328.71436 270.74932 325.37084 C 271.85682 321.41483 271.55464 316.82534 269.10167 313.41968 C 268.06486 312.07124 266.3657 310.85057 264.58203 311.26562 z M 264.91992 313.55469 C 268.41658 314.7791 270.18243 318.75335 269.89646 322.26908 C 269.79593 324.9128 268.77465 327.8423 266.30469 329.14648 C 263.74367 330.00936 261.08628 327.94475 260.32289 325.55462 C 259.20473 322.3039 260.07403 318.70549 261.58594 315.73438 C 262.2804 314.64778 263.37297 313.49037 264.7395 313.49968 L 264.87939 313.54233 L 264.91992 313.55469 z "
         id="path4179"
         inkscape:connector-curvature="0" />
      <path
         d="M 285.54883 307.75195 C 283.3444 307.89518 281.13997 308.03841 278.93555 308.18164 C 278.94834 308.96008 278.95784 309.94342 279.71094 310.39844 C 281.00324 310.34287 282.31438 310.20602 283.59375 310.46875 C 283.86293 317.93619 284.13181 325.40364 284.40039 332.87109 C 285.39833 334.8446 287.64127 336.18703 289.86719 335.90625 C 288.36908 335.59535 286.5577 335.32123 285.72852 333.85742 C 284.20102 327.88626 285.63266 321.74439 285.68687 315.70034 C 285.80332 313.10473 285.90612 310.50856 286.00195 307.91211 C 285.91907 307.74747 285.71041 307.71942 285.54883 307.75195 z "
         id="path4181"
         inkscape:connector-curvature="0" />
      <path
         d="M 304.41797 308.03711 C 302.70204 309.35105 302.93159 311.73502 303.0303 313.65012 C 303.19403 321.75243 303.35776 329.85473 303.52148 337.95703 C 304.43688 337.8098 305.03265 336.50268 306.05078 336.94141 C 306.70148 336.2343 305.36783 335.70881 305.35036 334.9779 C 304.34225 332.26246 304.33358 329.28361 305.01201 326.49045 C 305.59629 324.08599 306.51059 321.67931 308.07812 319.74023 C 309.05519 318.64276 310.82602 318.16631 312.06316 319.12488 C 314.44665 320.73806 315.65386 323.61823 316.08203 326.37891 C 316.56294 329.98703 315.81421 333.87229 313.63357 336.82994 C 312.58916 338.1847 310.7853 339.40807 309.02514 338.72277 C 308.72111 338.71931 310.42027 339.18728 310.90267 338.98971 C 313.62614 338.72384 315.74056 336.32887 316.2354 333.72352 C 317.77365 328.7967 318.07001 323.13475 315.54893 318.47522 C 313.79211 315.82093 309.52019 315.80027 307.48442 318.12185 C 306.46519 319.03096 305.00414 317.82119 305.11512 316.64478 C 305.52895 314.04411 305.51664 311.37263 305.68359 308.73828 C 305.483 308.25472 304.9365 307.94245 304.41797 308.03711 z "
         id="path4183"
         inkscape:connector-curvature="0" />
      <path
         d="M 333.67969 308.89453 C 328.53062 309.79125 324.82919 314.99561 325.03125 320.10938 C 324.71863 324.59953 325.63216 329.30439 328.26172 333.02539 C 330.99325 334.80736 334.89764 333.14424 336.16211 330.30859 C 339.16294 325.51276 340.87509 319.62136 339.62184 313.98951 C 339.14163 311.19132 336.67326 308.61403 333.67969 308.89453 z M 333.45898 311.7207 C 336.97695 312.61004 339.05227 316.49661 338.63709 319.9661 C 338.50126 324.44719 336.85182 329.0269 333.50586 332.10938 C 330.95974 333.60149 327.42625 331.52791 327.19442 328.65905 C 326.04809 324.43783 327.04073 319.99929 328.38839 315.95257 C 329.28205 313.9694 330.89387 312.07015 333.12695 311.65039 C 333.23763 311.67383 333.34831 311.69727 333.45898 311.7207 z "
         id="path4185"
         inkscape:connector-curvature="0" />
      <path
         d="M 361.07617 300.94531 C 359.88727 301.09967 358.73761 301.90181 358.5054 303.12811 C 357.43032 305.21313 356.36334 307.3076 355.2832 309.38672 C 353.27948 308.73592 352.68646 306.45807 351.2322 305.14805 C 350.67042 304.45417 350.10865 303.76029 349.54688 303.06641 C 348.56723 303.31702 347.52948 303.3807 346.60938 303.83008 C 349.01074 306.54201 351.39638 309.27351 353.69531 312.07031 C 351.63907 316.75218 349.18473 321.24231 346.83789 325.78125 C 348.44348 324.86441 348.71644 322.82497 349.84957 321.48842 C 351.21576 319.25938 352.56659 317.02054 353.91211 314.7793 C 354.75802 314.08538 355.99397 314.94779 356.13867 315.89258 C 357.22201 318.1224 358.30534 320.35221 359.38867 322.58203 C 360.02766 322.86334 360.83524 321.92237 360.2832 321.39062 C 358.97035 318.06884 357.52323 314.80038 356.05859 311.54492 C 358.15524 308.13035 360.25877 304.71732 362.18945 301.20508 C 362.10364 300.71706 361.39689 300.94631 361.07617 300.94531 z "
         id="path4187"
         inkscape:connector-curvature="0" />
    </g>
  </g>
</svg>
